%TF.GenerationSoftware,KiCad,Pcbnew,7.0.10*%
%TF.CreationDate,2024-02-07T21:18:28+06:30*%
%TF.ProjectId,7805,37383035-2e6b-4696-9361-645f70636258,rev?*%
%TF.SameCoordinates,PXa990340PY791ddc0*%
%TF.FileFunction,Copper,L1,Top*%
%TF.FilePolarity,Positive*%
%FSLAX46Y46*%
G04 Gerber Fmt 4.6, Leading zero omitted, Abs format (unit mm)*
G04 Created by KiCad (PCBNEW 7.0.10) date 2024-02-07 21:18:28*
%MOMM*%
%LPD*%
G01*
G04 APERTURE LIST*
%TA.AperFunction,ComponentPad*%
%ADD10R,1.600000X1.600000*%
%TD*%
%TA.AperFunction,ComponentPad*%
%ADD11C,1.600000*%
%TD*%
%TA.AperFunction,ComponentPad*%
%ADD12R,2.600000X2.600000*%
%TD*%
%TA.AperFunction,ComponentPad*%
%ADD13C,2.600000*%
%TD*%
%TA.AperFunction,ComponentPad*%
%ADD14C,2.000000*%
%TD*%
%TA.AperFunction,ComponentPad*%
%ADD15C,6.400000*%
%TD*%
%TA.AperFunction,ComponentPad*%
%ADD16R,2.200000X2.200000*%
%TD*%
%TA.AperFunction,ComponentPad*%
%ADD17O,2.200000X2.200000*%
%TD*%
%TA.AperFunction,ComponentPad*%
%ADD18R,1.905000X2.000000*%
%TD*%
%TA.AperFunction,ComponentPad*%
%ADD19O,1.905000X2.000000*%
%TD*%
%TA.AperFunction,ViaPad*%
%ADD20C,0.600000*%
%TD*%
%TA.AperFunction,Conductor*%
%ADD21C,1.270000*%
%TD*%
%TA.AperFunction,Conductor*%
%ADD22C,0.762000*%
%TD*%
G04 APERTURE END LIST*
D10*
%TO.P,C3,1*%
%TO.N,Net-(J2-Pin_2)*%
X39942888Y7112000D03*
D11*
%TO.P,C3,2*%
%TO.N,Net-(J1-Pin_2)*%
X42442888Y7112000D03*
%TD*%
D12*
%TO.P,J2,1,Pin_1*%
%TO.N,Net-(J1-Pin_2)*%
X55169000Y10155000D03*
D13*
%TO.P,J2,2,Pin_2*%
%TO.N,Net-(J2-Pin_2)*%
X55169000Y15235000D03*
%TD*%
D10*
%TO.P,C1,1*%
%TO.N,Net-(D1-K)*%
X14732000Y9144000D03*
D11*
%TO.P,C1,2*%
%TO.N,Net-(J1-Pin_2)*%
X14732000Y6644000D03*
%TD*%
D14*
%TO.P,C2,1*%
%TO.N,Net-(J1-Pin_2)*%
X22352000Y3870000D03*
%TO.P,C2,2*%
%TO.N,Net-(D1-K)*%
X22352000Y11370000D03*
%TD*%
D12*
%TO.P,J1,1,Pin_1*%
%TO.N,Net-(D1-A)*%
X5334000Y15245000D03*
D13*
%TO.P,J1,2,Pin_2*%
%TO.N,Net-(J1-Pin_2)*%
X5334000Y10165000D03*
%TD*%
D15*
%TO.P,H2,1,1*%
%TO.N,unconnected-(H2-Pad1)*%
X3556000Y3556000D03*
%TD*%
D16*
%TO.P,D1,1,K*%
%TO.N,Net-(D1-K)*%
X24130000Y16510000D03*
D17*
%TO.P,D1,2,A*%
%TO.N,Net-(D1-A)*%
X13970000Y16510000D03*
%TD*%
D14*
%TO.P,C4,1*%
%TO.N,Net-(J2-Pin_2)*%
X47438000Y15240000D03*
%TO.P,C4,2*%
%TO.N,Net-(J1-Pin_2)*%
X39938000Y15240000D03*
%TD*%
D15*
%TO.P,H1,1,1*%
%TO.N,unconnected-(H1-Pad1)*%
X3556000Y21844000D03*
%TD*%
D18*
%TO.P,U1,1,IN*%
%TO.N,Net-(D1-K)*%
X29464000Y3470000D03*
D19*
%TO.P,U1,2,GND*%
%TO.N,Net-(J1-Pin_2)*%
X32004000Y3470000D03*
%TO.P,U1,3,OUT*%
%TO.N,Net-(J2-Pin_2)*%
X34544000Y3470000D03*
%TD*%
D15*
%TO.P,H3,1,1*%
%TO.N,unconnected-(H3-Pad1)*%
X56896000Y21844000D03*
%TD*%
%TO.P,H4,1,1*%
%TO.N,unconnected-(H4-Pad1)*%
X56896000Y3556000D03*
%TD*%
D20*
%TO.N,Net-(J1-Pin_2)*%
X47255477Y4538250D03*
X37095477Y7078250D03*
X21855477Y19778250D03*
X34555477Y12158250D03*
X39635477Y1998250D03*
X19315477Y7078250D03*
X9155477Y1998250D03*
X39635477Y19778250D03*
X6615477Y7078250D03*
X21855477Y1998250D03*
X44715477Y9618250D03*
X14235477Y4538250D03*
X52335477Y7078250D03*
X26935477Y14698250D03*
X11695477Y17238250D03*
X52335477Y22318250D03*
X9155477Y22318250D03*
X1535477Y17238250D03*
X44715477Y22318250D03*
X32015477Y17238250D03*
X9155477Y12158250D03*
X57415477Y9618250D03*
X26935477Y22318250D03*
X47255477Y17238250D03*
X1535477Y9618250D03*
X57415477Y17238250D03*
X29475477Y9618250D03*
X34555477Y22318250D03*
X16775477Y22318250D03*
X16775477Y14698250D03*
X49795477Y12158250D03*
X42175477Y14698250D03*
%TD*%
D21*
%TO.N,Net-(D1-K)*%
X22352000Y10582000D02*
X22817000Y10117000D01*
X24130000Y10922000D02*
X24130000Y8804000D01*
X24130000Y13148000D02*
X23271000Y12289000D01*
X23769500Y9164500D02*
X24150500Y8783500D01*
X22352000Y11370000D02*
X22800000Y10922000D01*
X23271000Y12289000D02*
X23495000Y12065000D01*
X23749000Y9144000D02*
X23769500Y9164500D01*
X24130000Y8804000D02*
X24150500Y8783500D01*
X24150500Y8783500D02*
X29464000Y3470000D01*
X22817000Y11835000D02*
X22817000Y10117000D01*
X21112000Y10130000D02*
X21125000Y10117000D01*
X14732000Y9144000D02*
X20126000Y9144000D01*
X24130000Y13148000D02*
X24130000Y10922000D01*
X23271000Y12289000D02*
X22817000Y11835000D01*
X23495000Y12065000D02*
X23495000Y10922000D01*
X23271000Y12289000D02*
X22352000Y11370000D01*
X22800000Y10922000D02*
X23495000Y10922000D01*
X21112000Y10130000D02*
X22352000Y11370000D01*
X22352000Y11370000D02*
X22352000Y10582000D01*
X20126000Y9144000D02*
X21112000Y10130000D01*
X23495000Y10922000D02*
X24130000Y10922000D01*
X20126000Y9144000D02*
X23749000Y9144000D01*
X21125000Y10117000D02*
X22817000Y10117000D01*
X24130000Y16510000D02*
X24130000Y13148000D01*
X22817000Y10117000D02*
X23769500Y9164500D01*
%TO.N,Net-(D1-A)*%
X5334000Y15245000D02*
X12705000Y15245000D01*
X12705000Y15245000D02*
X13970000Y16510000D01*
D22*
%TO.N,Net-(J2-Pin_2)*%
X36300888Y3470000D02*
X39942888Y7112000D01*
X39942888Y7744888D02*
X39942888Y7112000D01*
X55164000Y15240000D02*
X55169000Y15235000D01*
X47438000Y15240000D02*
X55164000Y15240000D01*
X47438000Y15240000D02*
X39942888Y7744888D01*
X34544000Y3470000D02*
X36300888Y3470000D01*
%TD*%
%TA.AperFunction,Conductor*%
%TO.N,Net-(J1-Pin_2)*%
G36*
X54763044Y25079815D02*
G01*
X54808799Y25027011D01*
X54818743Y24957853D01*
X54789718Y24894297D01*
X54763540Y24871505D01*
X54717917Y24841878D01*
X54416488Y24597785D01*
X54416480Y24597778D01*
X54142222Y24323520D01*
X54142215Y24323512D01*
X53898122Y24022083D01*
X53686877Y23696794D01*
X53510787Y23351198D01*
X53371788Y22989095D01*
X53271397Y22614430D01*
X53271397Y22614428D01*
X53210722Y22231340D01*
X53190422Y21844001D01*
X53190422Y21844000D01*
X53210722Y21456661D01*
X53236542Y21293640D01*
X53271398Y21073567D01*
X53367814Y20713735D01*
X53371788Y20698906D01*
X53510787Y20336803D01*
X53686877Y19991207D01*
X53898122Y19665918D01*
X54063463Y19461739D01*
X54142219Y19364484D01*
X54416484Y19090219D01*
X54506450Y19017366D01*
X54717917Y18846123D01*
X54983330Y18673762D01*
X55043211Y18634875D01*
X55388806Y18458786D01*
X55750913Y18319786D01*
X56125567Y18219398D01*
X56508662Y18158722D01*
X56874576Y18139545D01*
X56895999Y18138422D01*
X56896000Y18138422D01*
X56896001Y18138422D01*
X56916301Y18139486D01*
X57283338Y18158722D01*
X57666433Y18219398D01*
X58041087Y18319786D01*
X58403194Y18458786D01*
X58748789Y18634875D01*
X59074084Y18846124D01*
X59375516Y19090219D01*
X59649781Y19364484D01*
X59893876Y19665916D01*
X59923505Y19711542D01*
X59976525Y19757044D01*
X60045730Y19766659D01*
X60109147Y19737332D01*
X60146642Y19678375D01*
X60151500Y19644006D01*
X60151500Y5755995D01*
X60131815Y5688956D01*
X60079011Y5643201D01*
X60009853Y5633257D01*
X59946297Y5662282D01*
X59923505Y5688460D01*
X59893877Y5734083D01*
X59744515Y5918529D01*
X59649781Y6035516D01*
X59375516Y6309781D01*
X59242630Y6417390D01*
X59074082Y6553878D01*
X58748793Y6765123D01*
X58403197Y6941213D01*
X58041094Y7080212D01*
X58003378Y7090318D01*
X57666433Y7180602D01*
X57666429Y7180603D01*
X57666428Y7180603D01*
X57283339Y7241278D01*
X56896001Y7261578D01*
X56895999Y7261578D01*
X56508660Y7241278D01*
X56125572Y7180603D01*
X56125570Y7180603D01*
X55750905Y7080212D01*
X55388802Y6941213D01*
X55043206Y6765123D01*
X54717917Y6553878D01*
X54416488Y6309785D01*
X54416480Y6309778D01*
X54142222Y6035520D01*
X54142215Y6035512D01*
X53898122Y5734083D01*
X53686877Y5408794D01*
X53510787Y5063198D01*
X53371788Y4701095D01*
X53271397Y4326430D01*
X53271397Y4326428D01*
X53210722Y3943340D01*
X53190422Y3556001D01*
X53190422Y3556000D01*
X53210722Y3168661D01*
X53263243Y2837057D01*
X53271398Y2785567D01*
X53368780Y2422130D01*
X53371788Y2410906D01*
X53510787Y2048803D01*
X53686877Y1703207D01*
X53898122Y1377918D01*
X54114401Y1110836D01*
X54142219Y1076484D01*
X54416484Y802219D01*
X54584375Y666263D01*
X54717917Y558123D01*
X54763540Y528495D01*
X54809043Y475474D01*
X54818657Y406269D01*
X54789330Y342852D01*
X54730373Y305358D01*
X54696005Y300500D01*
X5755995Y300500D01*
X5688956Y320185D01*
X5643201Y372989D01*
X5633257Y442147D01*
X5662282Y505703D01*
X5688460Y528495D01*
X5734082Y558123D01*
X5734084Y558124D01*
X6035516Y802219D01*
X6309781Y1076484D01*
X6553876Y1377916D01*
X6765125Y1703211D01*
X6941214Y2048806D01*
X7080214Y2410913D01*
X7180602Y2785567D01*
X7241278Y3168662D01*
X7261578Y3556000D01*
X7245122Y3869995D01*
X20846859Y3869995D01*
X20867385Y3622271D01*
X20867387Y3622262D01*
X20928412Y3381283D01*
X21028266Y3153636D01*
X21128564Y3000118D01*
X21868923Y3740477D01*
X21892507Y3660156D01*
X21970239Y3539202D01*
X22078900Y3445048D01*
X22209685Y3385320D01*
X22219466Y3383914D01*
X21481942Y2646391D01*
X21528768Y2609945D01*
X21528770Y2609944D01*
X21747385Y2491636D01*
X21747396Y2491631D01*
X21982506Y2410917D01*
X22227707Y2370000D01*
X22476293Y2370000D01*
X22721493Y2410917D01*
X22956603Y2491631D01*
X22956614Y2491636D01*
X23175228Y2609943D01*
X23175231Y2609945D01*
X23222056Y2646391D01*
X22484533Y3383914D01*
X22494315Y3385320D01*
X22625100Y3445048D01*
X22733761Y3539202D01*
X22811493Y3660156D01*
X22835076Y3740476D01*
X23575434Y3000118D01*
X23675731Y3153631D01*
X23775587Y3381283D01*
X23836612Y3622262D01*
X23836614Y3622271D01*
X23857141Y3869995D01*
X23857141Y3870006D01*
X23836614Y4117730D01*
X23836612Y4117739D01*
X23775587Y4358718D01*
X23675731Y4586370D01*
X23575434Y4739884D01*
X22835076Y3999525D01*
X22811493Y4079844D01*
X22733761Y4200798D01*
X22625100Y4294952D01*
X22494315Y4354680D01*
X22484534Y4356087D01*
X23222057Y5093610D01*
X23222056Y5093611D01*
X23175229Y5130057D01*
X22956614Y5248365D01*
X22956603Y5248370D01*
X22721493Y5329084D01*
X22476293Y5370000D01*
X22227707Y5370000D01*
X21982506Y5329084D01*
X21747396Y5248370D01*
X21747390Y5248368D01*
X21528761Y5130051D01*
X21481942Y5093612D01*
X21481942Y5093610D01*
X22219466Y4356087D01*
X22209685Y4354680D01*
X22078900Y4294952D01*
X21970239Y4200798D01*
X21892507Y4079844D01*
X21868923Y3999525D01*
X21128564Y4739884D01*
X21028267Y4586368D01*
X20928412Y4358718D01*
X20867387Y4117739D01*
X20867385Y4117730D01*
X20846859Y3870006D01*
X20846859Y3869995D01*
X7245122Y3869995D01*
X7241278Y3943338D01*
X7180602Y4326433D01*
X7080214Y4701087D01*
X6941214Y5063194D01*
X6765125Y5408789D01*
X6583505Y5688460D01*
X6553877Y5734083D01*
X6404515Y5918529D01*
X6309781Y6035516D01*
X6035516Y6309781D01*
X5902630Y6417390D01*
X5734082Y6553878D01*
X5595309Y6643998D01*
X13427034Y6643998D01*
X13446858Y6417401D01*
X13446860Y6417390D01*
X13505730Y6197683D01*
X13505735Y6197669D01*
X13601863Y5991522D01*
X13652974Y5918528D01*
X14334046Y6599600D01*
X14346835Y6518852D01*
X14404359Y6405955D01*
X14493955Y6316359D01*
X14606852Y6258835D01*
X14687599Y6246047D01*
X14006526Y5564975D01*
X14079513Y5513868D01*
X14079521Y5513864D01*
X14285668Y5417736D01*
X14285682Y5417731D01*
X14505389Y5358861D01*
X14505400Y5358859D01*
X14731998Y5339034D01*
X14732002Y5339034D01*
X14958599Y5358859D01*
X14958610Y5358861D01*
X15178317Y5417731D01*
X15178331Y5417736D01*
X15384478Y5513864D01*
X15457471Y5564976D01*
X14776400Y6246047D01*
X14857148Y6258835D01*
X14970045Y6316359D01*
X15059641Y6405955D01*
X15117165Y6518852D01*
X15129953Y6599600D01*
X15811024Y5918529D01*
X15862136Y5991522D01*
X15958264Y6197669D01*
X15958269Y6197683D01*
X16017139Y6417390D01*
X16017141Y6417401D01*
X16036966Y6643998D01*
X16036966Y6644003D01*
X16017141Y6870600D01*
X16017139Y6870611D01*
X15958269Y7090318D01*
X15958264Y7090332D01*
X15862136Y7296479D01*
X15862132Y7296487D01*
X15811025Y7369474D01*
X15129953Y6688402D01*
X15117165Y6769148D01*
X15059641Y6882045D01*
X14970045Y6971641D01*
X14857148Y7029165D01*
X14776401Y7041954D01*
X15462645Y7728199D01*
X15472492Y7777193D01*
X15521107Y7827376D01*
X15576633Y7842019D01*
X15576576Y7843100D01*
X15576571Y7843146D01*
X15576573Y7843147D01*
X15576564Y7843324D01*
X15579857Y7843501D01*
X15579872Y7843501D01*
X15639483Y7849909D01*
X15774331Y7900204D01*
X15827357Y7939899D01*
X15885956Y7983766D01*
X15951420Y8008184D01*
X15960267Y8008500D01*
X20017573Y8008500D01*
X20020838Y8008500D01*
X20041402Y8006784D01*
X20044626Y8006241D01*
X20138048Y8008465D01*
X20140998Y8008500D01*
X23267851Y8008500D01*
X23334890Y7988815D01*
X23349046Y7978219D01*
X23352391Y7975321D01*
X23358877Y7969283D01*
X23388244Y7939916D01*
X23388262Y7939899D01*
X27974681Y3353480D01*
X28008166Y3292157D01*
X28011000Y3265799D01*
X28011000Y2422130D01*
X28011001Y2422124D01*
X28017408Y2362517D01*
X28067702Y2227672D01*
X28067706Y2227665D01*
X28153952Y2112456D01*
X28153955Y2112453D01*
X28269164Y2026207D01*
X28269171Y2026203D01*
X28404017Y1975909D01*
X28404016Y1975909D01*
X28410944Y1975165D01*
X28463627Y1969500D01*
X30464372Y1969501D01*
X30523983Y1975909D01*
X30658831Y2026204D01*
X30774046Y2112454D01*
X30860296Y2227669D01*
X30860297Y2227672D01*
X30860298Y2227673D01*
X30866308Y2243791D01*
X30871907Y2258803D01*
X30913776Y2314736D01*
X30979240Y2339156D01*
X31047513Y2324306D01*
X31064252Y2313325D01*
X31206831Y2202351D01*
X31206840Y2202345D01*
X31418531Y2087785D01*
X31418545Y2087779D01*
X31646207Y2009621D01*
X31754000Y1991634D01*
X31754000Y2978317D01*
X31782819Y2960791D01*
X31928404Y2920000D01*
X32041622Y2920000D01*
X32153783Y2935416D01*
X32254000Y2978947D01*
X32254000Y1991635D01*
X32361792Y2009621D01*
X32589454Y2087779D01*
X32589468Y2087785D01*
X32801159Y2202345D01*
X32801168Y2202351D01*
X32991116Y2350194D01*
X32991126Y2350203D01*
X33154154Y2527298D01*
X33154155Y2527299D01*
X33169891Y2551384D01*
X33223036Y2596742D01*
X33292267Y2606167D01*
X33355604Y2576667D01*
X33377510Y2551386D01*
X33393446Y2526993D01*
X33393449Y2526990D01*
X33556537Y2349829D01*
X33678095Y2255217D01*
X33746017Y2202351D01*
X33746561Y2201928D01*
X33911891Y2112456D01*
X33957478Y2087785D01*
X33958336Y2087321D01*
X34070526Y2048806D01*
X34186083Y2009135D01*
X34186085Y2009135D01*
X34186087Y2009134D01*
X34423601Y1969500D01*
X34423602Y1969500D01*
X34664398Y1969500D01*
X34664399Y1969500D01*
X34901913Y2009134D01*
X35129664Y2087321D01*
X35341439Y2201928D01*
X35531463Y2349829D01*
X35694551Y2526990D01*
X35698033Y2532319D01*
X35751178Y2577677D01*
X35801843Y2588500D01*
X36260015Y2588500D01*
X36270079Y2588092D01*
X36324899Y2583627D01*
X36406483Y2594743D01*
X36409717Y2595139D01*
X36491502Y2604033D01*
X36491757Y2604120D01*
X36514602Y2609473D01*
X36514882Y2609511D01*
X36592140Y2637896D01*
X36595237Y2638987D01*
X36673203Y2665255D01*
X36673427Y2665390D01*
X36694611Y2675542D01*
X36694858Y2675632D01*
X36764184Y2719946D01*
X36766985Y2721683D01*
X36837495Y2764106D01*
X36837681Y2764283D01*
X36856194Y2778757D01*
X36856413Y2778896D01*
X36914609Y2837094D01*
X36916940Y2839362D01*
X36976696Y2895964D01*
X36976845Y2896186D01*
X36991799Y2914284D01*
X39852698Y5775182D01*
X39914021Y5808667D01*
X39940379Y5811501D01*
X40790759Y5811501D01*
X40790760Y5811501D01*
X40850371Y5817909D01*
X40985219Y5868204D01*
X41100434Y5954454D01*
X41186684Y6069669D01*
X41236979Y6204517D01*
X41243388Y6264127D01*
X41243387Y6264155D01*
X41243566Y6267453D01*
X41245071Y6267373D01*
X41263000Y6328674D01*
X41315756Y6374486D01*
X41359353Y6382019D01*
X42044934Y7067601D01*
X42057723Y6986852D01*
X42115247Y6873955D01*
X42204843Y6784359D01*
X42317740Y6726835D01*
X42398487Y6714047D01*
X41717414Y6032975D01*
X41790401Y5981868D01*
X41790409Y5981864D01*
X41996556Y5885736D01*
X41996570Y5885731D01*
X42216277Y5826861D01*
X42216288Y5826859D01*
X42442886Y5807034D01*
X42442890Y5807034D01*
X42669487Y5826859D01*
X42669498Y5826861D01*
X42889205Y5885731D01*
X42889219Y5885736D01*
X43095366Y5981864D01*
X43168359Y6032976D01*
X42487288Y6714047D01*
X42568036Y6726835D01*
X42680933Y6784359D01*
X42770529Y6873955D01*
X42828053Y6986852D01*
X42840841Y7067600D01*
X43521912Y6386529D01*
X43573024Y6459522D01*
X43669152Y6665669D01*
X43669157Y6665683D01*
X43728027Y6885390D01*
X43728029Y6885401D01*
X43747854Y7111998D01*
X43747854Y7112003D01*
X43728029Y7338600D01*
X43728027Y7338611D01*
X43669157Y7558318D01*
X43669152Y7558332D01*
X43573024Y7764479D01*
X43573020Y7764487D01*
X43521913Y7837474D01*
X42840841Y7156402D01*
X42828053Y7237148D01*
X42770529Y7350045D01*
X42680933Y7439641D01*
X42568036Y7497165D01*
X42487287Y7509954D01*
X43168360Y8191026D01*
X43095366Y8242137D01*
X42889219Y8338265D01*
X42889205Y8338270D01*
X42669498Y8397140D01*
X42669487Y8397142D01*
X42442890Y8416966D01*
X42442886Y8416966D01*
X42216288Y8397142D01*
X42216277Y8397140D01*
X42151691Y8379834D01*
X42081841Y8381497D01*
X42023979Y8420660D01*
X41996475Y8484889D01*
X42008062Y8553791D01*
X42031914Y8587287D01*
X42251783Y8807156D01*
X53369000Y8807156D01*
X53375401Y8747628D01*
X53375403Y8747621D01*
X53425645Y8612914D01*
X53425649Y8612907D01*
X53511809Y8497813D01*
X53511812Y8497810D01*
X53626906Y8411650D01*
X53626913Y8411646D01*
X53761620Y8361404D01*
X53761627Y8361402D01*
X53821155Y8355001D01*
X53821172Y8355000D01*
X54919000Y8355000D01*
X54919000Y9550690D01*
X54927817Y9545842D01*
X55086886Y9505000D01*
X55209894Y9505000D01*
X55331933Y9520417D01*
X55419000Y9554890D01*
X55419000Y8355000D01*
X56516828Y8355000D01*
X56516844Y8355001D01*
X56576372Y8361402D01*
X56576379Y8361404D01*
X56711086Y8411646D01*
X56711093Y8411650D01*
X56826187Y8497810D01*
X56826190Y8497813D01*
X56912350Y8612907D01*
X56912354Y8612914D01*
X56962596Y8747621D01*
X56962598Y8747628D01*
X56968999Y8807156D01*
X56969000Y8807173D01*
X56969000Y9905000D01*
X55769728Y9905000D01*
X55792100Y9952543D01*
X55822873Y10113862D01*
X55812561Y10277766D01*
X55771220Y10405000D01*
X56969000Y10405000D01*
X56969000Y11502828D01*
X56968999Y11502845D01*
X56962598Y11562373D01*
X56962596Y11562380D01*
X56912354Y11697087D01*
X56912350Y11697094D01*
X56826190Y11812188D01*
X56826187Y11812191D01*
X56711093Y11898351D01*
X56711086Y11898355D01*
X56576379Y11948597D01*
X56576372Y11948599D01*
X56516844Y11955000D01*
X55419000Y11955000D01*
X55419000Y10759311D01*
X55410183Y10764158D01*
X55251114Y10805000D01*
X55128106Y10805000D01*
X55006067Y10789583D01*
X54919000Y10755111D01*
X54919000Y11955000D01*
X53821155Y11955000D01*
X53761627Y11948599D01*
X53761620Y11948597D01*
X53626913Y11898355D01*
X53626906Y11898351D01*
X53511812Y11812191D01*
X53511809Y11812188D01*
X53425649Y11697094D01*
X53425645Y11697087D01*
X53375403Y11562380D01*
X53375401Y11562373D01*
X53369000Y11502845D01*
X53369000Y10405000D01*
X54568272Y10405000D01*
X54545900Y10357457D01*
X54515127Y10196138D01*
X54525439Y10032234D01*
X54566780Y9905000D01*
X53369000Y9905000D01*
X53369000Y8807156D01*
X42251783Y8807156D01*
X47157521Y13712894D01*
X47218842Y13746377D01*
X47265610Y13747519D01*
X47284213Y13744415D01*
X47313663Y13739500D01*
X47313665Y13739500D01*
X47562335Y13739500D01*
X47807614Y13780429D01*
X48042810Y13861172D01*
X48261509Y13979526D01*
X48457744Y14132262D01*
X48626164Y14315215D01*
X48626165Y14315217D01*
X48629172Y14318483D01*
X48689059Y14354473D01*
X48720402Y14358500D01*
X53524418Y14358500D01*
X53591457Y14338815D01*
X53631803Y14296502D01*
X53677185Y14217898D01*
X53714072Y14171643D01*
X53845442Y14006911D01*
X54002513Y13861172D01*
X54043259Y13823365D01*
X54266226Y13671349D01*
X54509359Y13554262D01*
X54767228Y13474720D01*
X54767229Y13474720D01*
X54767232Y13474719D01*
X55034063Y13434501D01*
X55034068Y13434501D01*
X55034071Y13434500D01*
X55034072Y13434500D01*
X55303928Y13434500D01*
X55303929Y13434500D01*
X55303936Y13434501D01*
X55570767Y13474719D01*
X55570768Y13474720D01*
X55570772Y13474720D01*
X55828641Y13554262D01*
X56071775Y13671349D01*
X56294741Y13823365D01*
X56492561Y14006915D01*
X56660815Y14217898D01*
X56795743Y14451602D01*
X56894334Y14702805D01*
X56954383Y14965897D01*
X56969503Y15167665D01*
X56974549Y15234996D01*
X56974549Y15235005D01*
X56954383Y15504102D01*
X56954383Y15504103D01*
X56894334Y15767195D01*
X56795743Y16018398D01*
X56660815Y16252102D01*
X56492561Y16463085D01*
X56492560Y16463086D01*
X56492557Y16463090D01*
X56294741Y16646635D01*
X56286162Y16652484D01*
X56071775Y16798651D01*
X56071769Y16798654D01*
X56071768Y16798655D01*
X56071767Y16798656D01*
X55828643Y16915737D01*
X55828645Y16915737D01*
X55570773Y16995280D01*
X55570767Y16995282D01*
X55303936Y17035500D01*
X55303929Y17035500D01*
X55034071Y17035500D01*
X55034063Y17035500D01*
X54767232Y16995282D01*
X54767226Y16995280D01*
X54509358Y16915738D01*
X54266230Y16798654D01*
X54043258Y16646635D01*
X53845442Y16463090D01*
X53677185Y16252102D01*
X53637578Y16183500D01*
X53587011Y16135285D01*
X53530191Y16121500D01*
X48720402Y16121500D01*
X48653363Y16141185D01*
X48629172Y16161517D01*
X48626164Y16164785D01*
X48457744Y16347738D01*
X48261509Y16500474D01*
X48261507Y16500475D01*
X48261506Y16500476D01*
X48042811Y16618828D01*
X48042802Y16618831D01*
X47807616Y16699571D01*
X47562335Y16740500D01*
X47313665Y16740500D01*
X47068383Y16699571D01*
X46833197Y16618831D01*
X46833188Y16618828D01*
X46614493Y16500476D01*
X46418257Y16347739D01*
X46249833Y16164783D01*
X46113826Y15956607D01*
X46013936Y15728882D01*
X45952892Y15487825D01*
X45952890Y15487813D01*
X45932357Y15240005D01*
X45932357Y15239995D01*
X45947430Y15058087D01*
X45933349Y14989651D01*
X45911535Y14960166D01*
X39400188Y8448819D01*
X39338865Y8415334D01*
X39312508Y8412500D01*
X39095018Y8412500D01*
X39095011Y8412499D01*
X39035404Y8406092D01*
X38900559Y8355798D01*
X38900552Y8355794D01*
X38785343Y8269548D01*
X38785340Y8269545D01*
X38699094Y8154336D01*
X38699090Y8154329D01*
X38648796Y8019483D01*
X38642389Y7959884D01*
X38642388Y7959865D01*
X38642388Y7109492D01*
X38622703Y7042453D01*
X38606069Y7021811D01*
X35972078Y4387819D01*
X35910755Y4354334D01*
X35884397Y4351500D01*
X35801843Y4351500D01*
X35734804Y4371185D01*
X35698033Y4407681D01*
X35694555Y4413004D01*
X35694554Y4413005D01*
X35694551Y4413010D01*
X35531463Y4590171D01*
X35374505Y4712336D01*
X35341441Y4738071D01*
X35129665Y4852679D01*
X35129656Y4852682D01*
X34901916Y4930866D01*
X34702800Y4964092D01*
X34664399Y4970500D01*
X34423601Y4970500D01*
X34385200Y4964092D01*
X34186083Y4930866D01*
X33958343Y4852682D01*
X33958334Y4852679D01*
X33746558Y4738071D01*
X33650195Y4663068D01*
X33556537Y4590171D01*
X33556534Y4590169D01*
X33556534Y4590168D01*
X33393450Y4413012D01*
X33393446Y4413006D01*
X33377507Y4388611D01*
X33324359Y4343256D01*
X33255127Y4333835D01*
X33191793Y4363339D01*
X33169892Y4388615D01*
X33154154Y4412704D01*
X32991126Y4589798D01*
X32991116Y4589807D01*
X32801168Y4737650D01*
X32801159Y4737656D01*
X32589468Y4852216D01*
X32589454Y4852222D01*
X32361791Y4930381D01*
X32254000Y4948367D01*
X32254000Y3961684D01*
X32225181Y3979209D01*
X32079596Y4020000D01*
X31966378Y4020000D01*
X31854217Y4004584D01*
X31754000Y3961054D01*
X31754000Y4948367D01*
X31753999Y4948367D01*
X31646208Y4930381D01*
X31418545Y4852222D01*
X31418531Y4852216D01*
X31206840Y4737656D01*
X31206838Y4737655D01*
X31064252Y4626675D01*
X30999258Y4601033D01*
X30930718Y4614600D01*
X30880393Y4663068D01*
X30871907Y4681199D01*
X30860297Y4712329D01*
X30860293Y4712336D01*
X30774047Y4827545D01*
X30774044Y4827548D01*
X30658835Y4913794D01*
X30658828Y4913798D01*
X30523982Y4964092D01*
X30523983Y4964092D01*
X30464383Y4970499D01*
X30464381Y4970500D01*
X30464373Y4970500D01*
X30464365Y4970500D01*
X29620701Y4970500D01*
X29553662Y4990185D01*
X29533020Y5006819D01*
X25301819Y9238021D01*
X25268334Y9299344D01*
X25265500Y9325702D01*
X25265500Y10831920D01*
X25266762Y10849566D01*
X25269373Y10867725D01*
X25265640Y10946094D01*
X25265500Y10951994D01*
X25265500Y13072974D01*
X25266377Y13087695D01*
X25270342Y13120855D01*
X25265816Y13184139D01*
X25265500Y13192984D01*
X25265500Y14802966D01*
X25285185Y14870005D01*
X25337989Y14915760D01*
X25346167Y14919148D01*
X25472328Y14966203D01*
X25472327Y14966203D01*
X25472331Y14966204D01*
X25587546Y15052454D01*
X25673796Y15167669D01*
X25700772Y15239995D01*
X38432859Y15239995D01*
X38453385Y14992271D01*
X38453387Y14992262D01*
X38514412Y14751283D01*
X38614266Y14523636D01*
X38714564Y14370118D01*
X39454923Y15110477D01*
X39478507Y15030156D01*
X39556239Y14909202D01*
X39664900Y14815048D01*
X39795685Y14755320D01*
X39805466Y14753914D01*
X39067942Y14016391D01*
X39114768Y13979945D01*
X39114770Y13979944D01*
X39333385Y13861636D01*
X39333396Y13861631D01*
X39568506Y13780917D01*
X39813707Y13740000D01*
X40062293Y13740000D01*
X40307493Y13780917D01*
X40542603Y13861631D01*
X40542614Y13861636D01*
X40761228Y13979943D01*
X40761231Y13979945D01*
X40808056Y14016391D01*
X40070533Y14753914D01*
X40080315Y14755320D01*
X40211100Y14815048D01*
X40319761Y14909202D01*
X40397493Y15030156D01*
X40421076Y15110476D01*
X41161434Y14370118D01*
X41261731Y14523631D01*
X41361587Y14751283D01*
X41422612Y14992262D01*
X41422614Y14992271D01*
X41443141Y15239995D01*
X41443141Y15240006D01*
X41422614Y15487730D01*
X41422612Y15487739D01*
X41361587Y15728718D01*
X41261731Y15956370D01*
X41161434Y16109884D01*
X40421076Y15369525D01*
X40397493Y15449844D01*
X40319761Y15570798D01*
X40211100Y15664952D01*
X40080315Y15724680D01*
X40070534Y15726087D01*
X40808057Y16463610D01*
X40808056Y16463611D01*
X40761229Y16500057D01*
X40542614Y16618365D01*
X40542603Y16618370D01*
X40307493Y16699084D01*
X40062293Y16740000D01*
X39813707Y16740000D01*
X39568506Y16699084D01*
X39333396Y16618370D01*
X39333390Y16618368D01*
X39114761Y16500051D01*
X39067942Y16463612D01*
X39067942Y16463610D01*
X39805466Y15726087D01*
X39795685Y15724680D01*
X39664900Y15664952D01*
X39556239Y15570798D01*
X39478507Y15449844D01*
X39454923Y15369525D01*
X38714564Y16109884D01*
X38614267Y15956368D01*
X38514412Y15728718D01*
X38453387Y15487739D01*
X38453385Y15487730D01*
X38432859Y15240006D01*
X38432859Y15239995D01*
X25700772Y15239995D01*
X25724091Y15302517D01*
X25730500Y15362127D01*
X25730499Y17657872D01*
X25724091Y17717483D01*
X25690017Y17808839D01*
X25673797Y17852329D01*
X25673793Y17852336D01*
X25587547Y17967545D01*
X25587544Y17967548D01*
X25472335Y18053794D01*
X25472328Y18053798D01*
X25337482Y18104092D01*
X25337483Y18104092D01*
X25277883Y18110499D01*
X25277881Y18110500D01*
X25277873Y18110500D01*
X25277864Y18110500D01*
X22982129Y18110500D01*
X22982123Y18110499D01*
X22922516Y18104092D01*
X22787671Y18053798D01*
X22787664Y18053794D01*
X22672455Y17967548D01*
X22672452Y17967545D01*
X22586206Y17852336D01*
X22586202Y17852329D01*
X22535908Y17717483D01*
X22529501Y17657884D01*
X22529501Y17657877D01*
X22529500Y17657865D01*
X22529500Y15362130D01*
X22529501Y15362124D01*
X22535908Y15302517D01*
X22586202Y15167672D01*
X22586206Y15167665D01*
X22672452Y15052456D01*
X22672455Y15052453D01*
X22787664Y14966207D01*
X22787671Y14966203D01*
X22913833Y14919148D01*
X22969767Y14877277D01*
X22994184Y14811813D01*
X22994500Y14802966D01*
X22994500Y13669703D01*
X22974815Y13602664D01*
X22958181Y13582022D01*
X22531775Y13155617D01*
X22518411Y13144035D01*
X22503717Y13133035D01*
X22450955Y13074996D01*
X22446889Y13070732D01*
X22429834Y13053675D01*
X22429832Y13053672D01*
X22429828Y13053668D01*
X22278554Y12902394D01*
X22217231Y12868910D01*
X22211283Y12867767D01*
X21982382Y12829571D01*
X21747197Y12748831D01*
X21747188Y12748828D01*
X21528493Y12630476D01*
X21332257Y12477739D01*
X21163833Y12294783D01*
X21027826Y12086607D01*
X20927936Y11858882D01*
X20866892Y11617825D01*
X20866890Y11617814D01*
X20859162Y11524549D01*
X20834008Y11459364D01*
X20823267Y11447109D01*
X20385752Y11009593D01*
X20385745Y11009586D01*
X20372765Y10996608D01*
X20359408Y10985034D01*
X20344724Y10974041D01*
X20344717Y10974035D01*
X20291946Y10915986D01*
X20287875Y10911717D01*
X19691979Y10315819D01*
X19630656Y10282334D01*
X19604298Y10279500D01*
X15960267Y10279500D01*
X15893228Y10299185D01*
X15885956Y10304234D01*
X15774335Y10387794D01*
X15774328Y10387798D01*
X15639482Y10438092D01*
X15639483Y10438092D01*
X15579883Y10444499D01*
X15579881Y10444500D01*
X15579873Y10444500D01*
X15579864Y10444500D01*
X13884129Y10444500D01*
X13884123Y10444499D01*
X13824516Y10438092D01*
X13689671Y10387798D01*
X13689664Y10387794D01*
X13574455Y10301548D01*
X13574452Y10301545D01*
X13488206Y10186336D01*
X13488202Y10186329D01*
X13437908Y10051483D01*
X13431501Y9991884D01*
X13431500Y9991865D01*
X13431500Y8296130D01*
X13431501Y8296124D01*
X13437908Y8236517D01*
X13488202Y8101672D01*
X13488206Y8101665D01*
X13574452Y7986456D01*
X13574455Y7986453D01*
X13689664Y7900207D01*
X13689671Y7900203D01*
X13734618Y7883439D01*
X13824517Y7849909D01*
X13884127Y7843500D01*
X13884153Y7843501D01*
X13887453Y7843322D01*
X13887372Y7841817D01*
X13948672Y7823888D01*
X13994483Y7771133D01*
X14002016Y7727536D01*
X14687599Y7041954D01*
X14606852Y7029165D01*
X14493955Y6971641D01*
X14404359Y6882045D01*
X14346835Y6769148D01*
X14334046Y6688402D01*
X13652974Y7369474D01*
X13652973Y7369474D01*
X13601868Y7296488D01*
X13601866Y7296484D01*
X13505734Y7090327D01*
X13505730Y7090318D01*
X13446860Y6870611D01*
X13446858Y6870600D01*
X13427034Y6644003D01*
X13427034Y6643998D01*
X5595309Y6643998D01*
X5408793Y6765123D01*
X5063197Y6941213D01*
X4701094Y7080212D01*
X4663378Y7090318D01*
X4326433Y7180602D01*
X4326429Y7180603D01*
X4326428Y7180603D01*
X3943339Y7241278D01*
X3556001Y7261578D01*
X3555999Y7261578D01*
X3168660Y7241278D01*
X2785572Y7180603D01*
X2785570Y7180603D01*
X2410905Y7080212D01*
X2048802Y6941213D01*
X1703206Y6765123D01*
X1377917Y6553878D01*
X1076488Y6309785D01*
X1076480Y6309778D01*
X802222Y6035520D01*
X802215Y6035512D01*
X558122Y5734083D01*
X528495Y5688460D01*
X475474Y5642957D01*
X406269Y5633343D01*
X342852Y5662670D01*
X305358Y5721627D01*
X300500Y5755995D01*
X300500Y10164996D01*
X3528953Y10164996D01*
X3549113Y9895974D01*
X3549113Y9895972D01*
X3609142Y9632967D01*
X3609148Y9632948D01*
X3707709Y9381819D01*
X3707708Y9381819D01*
X3842602Y9148178D01*
X3896294Y9080849D01*
X4731452Y9916008D01*
X4741188Y9886044D01*
X4829186Y9747381D01*
X4948903Y9634960D01*
X5083510Y9560959D01*
X4248848Y8726298D01*
X4431483Y8601780D01*
X4431485Y8601779D01*
X4674539Y8484731D01*
X4674537Y8484731D01*
X4932337Y8405210D01*
X4932343Y8405208D01*
X5199101Y8365001D01*
X5199110Y8365000D01*
X5468890Y8365000D01*
X5468898Y8365001D01*
X5735656Y8405208D01*
X5735662Y8405210D01*
X5993461Y8484731D01*
X6236521Y8601782D01*
X6419150Y8726298D01*
X5581534Y9563914D01*
X5649629Y9590874D01*
X5782492Y9687405D01*
X5887175Y9813945D01*
X5935631Y9916921D01*
X6771703Y9080849D01*
X6771704Y9080850D01*
X6825393Y9148172D01*
X6825400Y9148183D01*
X6960290Y9381819D01*
X7058851Y9632948D01*
X7058857Y9632967D01*
X7118886Y9895972D01*
X7118886Y9895974D01*
X7139047Y10164996D01*
X7139047Y10165005D01*
X7118886Y10434027D01*
X7118886Y10434029D01*
X7058857Y10697034D01*
X7058851Y10697053D01*
X6960290Y10948182D01*
X6960291Y10948182D01*
X6825397Y11181823D01*
X6771704Y11249153D01*
X5936546Y10413996D01*
X5926812Y10443956D01*
X5838814Y10582619D01*
X5719097Y10695040D01*
X5584489Y10769042D01*
X6419150Y11603704D01*
X6236517Y11728221D01*
X6236516Y11728222D01*
X5993460Y11845270D01*
X5993462Y11845270D01*
X5735662Y11924791D01*
X5735656Y11924793D01*
X5468898Y11965000D01*
X5199101Y11965000D01*
X4932343Y11924793D01*
X4932337Y11924791D01*
X4674538Y11845270D01*
X4431485Y11728222D01*
X4431476Y11728217D01*
X4248848Y11603704D01*
X5086465Y10766087D01*
X5018371Y10739126D01*
X4885508Y10642595D01*
X4780825Y10516055D01*
X4732368Y10413079D01*
X3896295Y11249152D01*
X3842600Y11181820D01*
X3707709Y10948182D01*
X3609148Y10697053D01*
X3609142Y10697034D01*
X3549113Y10434029D01*
X3549113Y10434027D01*
X3528953Y10165005D01*
X3528953Y10164996D01*
X300500Y10164996D01*
X300500Y13897130D01*
X3533500Y13897130D01*
X3533501Y13897124D01*
X3539908Y13837517D01*
X3590202Y13702672D01*
X3590206Y13702665D01*
X3676452Y13587456D01*
X3676455Y13587453D01*
X3791664Y13501207D01*
X3791671Y13501203D01*
X3926517Y13450909D01*
X3926516Y13450909D01*
X3933444Y13450165D01*
X3986127Y13444500D01*
X6681872Y13444501D01*
X6741483Y13450909D01*
X6876331Y13501204D01*
X6991546Y13587454D01*
X7077796Y13702669D01*
X7128091Y13837517D01*
X7134500Y13897127D01*
X7134500Y13985500D01*
X7154185Y14052539D01*
X7206989Y14098294D01*
X7258500Y14109500D01*
X12599838Y14109500D01*
X12620402Y14107784D01*
X12623626Y14107241D01*
X12717048Y14109465D01*
X12719998Y14109500D01*
X12759082Y14109500D01*
X12759091Y14109500D01*
X12768156Y14110366D01*
X12776972Y14110892D01*
X12840419Y14112402D01*
X12873048Y14119501D01*
X12887618Y14121772D01*
X12906171Y14123545D01*
X12920872Y14124948D01*
X12981774Y14142832D01*
X12990303Y14145008D01*
X13052317Y14158498D01*
X13083012Y14171644D01*
X13096884Y14176631D01*
X13128942Y14186043D01*
X13185343Y14215122D01*
X13193350Y14218893D01*
X13251663Y14243863D01*
X13279322Y14262584D01*
X13292003Y14270109D01*
X13321690Y14285412D01*
X13371575Y14324644D01*
X13378687Y14329837D01*
X13431250Y14365411D01*
X13454874Y14389037D01*
X13465899Y14398820D01*
X13492146Y14419460D01*
X13492149Y14419462D01*
X13533717Y14467436D01*
X13539722Y14473885D01*
X13938076Y14872239D01*
X13999397Y14905722D01*
X14016025Y14908174D01*
X14221148Y14924317D01*
X14466111Y14983127D01*
X14698859Y15079534D01*
X14913659Y15211164D01*
X15105224Y15374776D01*
X15268836Y15566341D01*
X15400466Y15781141D01*
X15496873Y16013889D01*
X15555683Y16258852D01*
X15575449Y16510000D01*
X15555683Y16761148D01*
X15496873Y17006111D01*
X15400466Y17238859D01*
X15400466Y17238860D01*
X15268839Y17453654D01*
X15268838Y17453657D01*
X15231875Y17496934D01*
X15105224Y17645224D01*
X14978571Y17753396D01*
X14913656Y17808839D01*
X14913653Y17808840D01*
X14698859Y17940467D01*
X14466110Y18036874D01*
X14221151Y18095683D01*
X13970000Y18115449D01*
X13718848Y18095683D01*
X13473889Y18036874D01*
X13241140Y17940467D01*
X13026346Y17808840D01*
X13026343Y17808839D01*
X12834776Y17645224D01*
X12671161Y17453657D01*
X12671160Y17453654D01*
X12539533Y17238860D01*
X12443126Y17006111D01*
X12390604Y16787336D01*
X12384317Y16761148D01*
X12375765Y16652484D01*
X12368173Y16556030D01*
X12343288Y16490742D01*
X12332238Y16478080D01*
X12270980Y16416820D01*
X12209657Y16383334D01*
X12183297Y16380500D01*
X7258499Y16380500D01*
X7191460Y16400185D01*
X7145705Y16452989D01*
X7134499Y16504500D01*
X7134499Y16592871D01*
X7134498Y16592877D01*
X7134497Y16592884D01*
X7128091Y16652483D01*
X7110528Y16699571D01*
X7077797Y16787329D01*
X7077793Y16787336D01*
X6991547Y16902545D01*
X6991544Y16902548D01*
X6876335Y16988794D01*
X6876328Y16988798D01*
X6741482Y17039092D01*
X6741483Y17039092D01*
X6681883Y17045499D01*
X6681881Y17045500D01*
X6681873Y17045500D01*
X6681864Y17045500D01*
X3986129Y17045500D01*
X3986123Y17045499D01*
X3926516Y17039092D01*
X3791671Y16988798D01*
X3791664Y16988794D01*
X3676455Y16902548D01*
X3676452Y16902545D01*
X3590206Y16787336D01*
X3590202Y16787329D01*
X3539908Y16652483D01*
X3533501Y16592884D01*
X3533501Y16592877D01*
X3533500Y16592865D01*
X3533500Y13897130D01*
X300500Y13897130D01*
X300500Y19644006D01*
X320185Y19711045D01*
X372989Y19756800D01*
X442147Y19766744D01*
X505703Y19737719D01*
X528493Y19711543D01*
X558124Y19665916D01*
X802219Y19364484D01*
X1076484Y19090219D01*
X1166450Y19017366D01*
X1377917Y18846123D01*
X1643330Y18673762D01*
X1703211Y18634875D01*
X2048806Y18458786D01*
X2410913Y18319786D01*
X2785567Y18219398D01*
X3168662Y18158722D01*
X3534576Y18139545D01*
X3555999Y18138422D01*
X3556000Y18138422D01*
X3556001Y18138422D01*
X3576301Y18139486D01*
X3943338Y18158722D01*
X4326433Y18219398D01*
X4701087Y18319786D01*
X5063194Y18458786D01*
X5408789Y18634875D01*
X5734084Y18846124D01*
X6035516Y19090219D01*
X6309781Y19364484D01*
X6553876Y19665916D01*
X6765125Y19991211D01*
X6835841Y20130000D01*
X29748671Y20130000D01*
X29750635Y20100031D01*
X29750831Y20087782D01*
X29749723Y20054633D01*
X29749723Y20054623D01*
X29760664Y19945864D01*
X29761021Y19941564D01*
X29767965Y19835624D01*
X29767967Y19835611D01*
X29774469Y19802916D01*
X29776228Y19791147D01*
X29779882Y19754836D01*
X29804457Y19651713D01*
X29805452Y19647159D01*
X29825515Y19546289D01*
X29825518Y19546281D01*
X29837301Y19511566D01*
X29840501Y19500461D01*
X29849729Y19461745D01*
X29849730Y19461742D01*
X29849731Y19461739D01*
X29860712Y19433227D01*
X29886644Y19365894D01*
X29888346Y19361194D01*
X29920348Y19266923D01*
X29937091Y19232971D01*
X29938022Y19231084D01*
X29942523Y19220808D01*
X29958019Y19180573D01*
X29958023Y19180564D01*
X30005787Y19093407D01*
X30008257Y19088659D01*
X30050822Y19002345D01*
X30050833Y19002326D01*
X30074869Y18966353D01*
X30080506Y18957059D01*
X30102822Y18916340D01*
X30102829Y18916329D01*
X30159826Y18838972D01*
X30163099Y18834309D01*
X30203366Y18774045D01*
X30214727Y18757043D01*
X30240104Y18728105D01*
X30245446Y18722014D01*
X30252044Y18713812D01*
X30281551Y18673765D01*
X30346064Y18607058D01*
X30350156Y18602615D01*
X30409236Y18535248D01*
X30409242Y18535242D01*
X30446756Y18502343D01*
X30454128Y18495321D01*
X30491018Y18457177D01*
X30561241Y18401723D01*
X30566151Y18397636D01*
X30608912Y18360136D01*
X30631043Y18340727D01*
X30675308Y18311150D01*
X30683228Y18305391D01*
X30727485Y18270442D01*
X30794194Y18230930D01*
X30801610Y18226538D01*
X30807309Y18222950D01*
X30876338Y18176826D01*
X30897927Y18166180D01*
X30927049Y18151819D01*
X30935386Y18147302D01*
X30986717Y18116898D01*
X30986722Y18116896D01*
X30986730Y18116891D01*
X31063030Y18084537D01*
X31069411Y18081614D01*
X31140923Y18046348D01*
X31197602Y18027108D01*
X31206134Y18023856D01*
X31264128Y17999264D01*
X31264132Y17999263D01*
X31340832Y17978253D01*
X31347916Y17976084D01*
X31420278Y17951519D01*
X31482232Y17939196D01*
X31490786Y17937176D01*
X31554729Y17919660D01*
X31630297Y17909498D01*
X31637939Y17908225D01*
X31709620Y17893966D01*
X31775972Y17889618D01*
X31784342Y17888781D01*
X31853347Y17879500D01*
X31926273Y17879500D01*
X31934382Y17879235D01*
X31941619Y17878760D01*
X32003994Y17874671D01*
X32004000Y17874671D01*
X32004004Y17874671D01*
X32020347Y17875743D01*
X32074099Y17879266D01*
X32078028Y17879460D01*
X32079216Y17879500D01*
X32079244Y17879500D01*
X32152670Y17884416D01*
X32152845Y17884377D01*
X32152842Y17884426D01*
X32274348Y17892391D01*
X32298380Y17893966D01*
X32298381Y17893967D01*
X32299155Y17894017D01*
X32303843Y17894482D01*
X32304618Y17894587D01*
X32304634Y17894588D01*
X32447658Y17923659D01*
X32587722Y17951519D01*
X32587734Y17951524D01*
X32591653Y17952573D01*
X32591703Y17952383D01*
X32599215Y17954416D01*
X32599893Y17954603D01*
X32599903Y17954604D01*
X32734629Y18001387D01*
X32734996Y18001513D01*
X32867077Y18046348D01*
X32867215Y18046417D01*
X32881411Y18052355D01*
X32884537Y18053440D01*
X33008742Y18116205D01*
X33009651Y18116659D01*
X33131665Y18176828D01*
X33134565Y18178767D01*
X33147531Y18186338D01*
X33153459Y18189332D01*
X33265531Y18266266D01*
X33266650Y18267023D01*
X33376957Y18340727D01*
X33382067Y18345210D01*
X33393664Y18354225D01*
X33401869Y18359856D01*
X33500143Y18448742D01*
X33501526Y18449973D01*
X33598758Y18535242D01*
X33605434Y18542856D01*
X33615494Y18553070D01*
X33625333Y18561968D01*
X33708802Y18660698D01*
X33710082Y18662184D01*
X33793273Y18757043D01*
X33800750Y18768235D01*
X33809156Y18779395D01*
X33819863Y18792059D01*
X33819865Y18792061D01*
X33887611Y18898185D01*
X33888972Y18900268D01*
X33957172Y19002335D01*
X33964592Y19017383D01*
X33971279Y19029249D01*
X33981993Y19046030D01*
X34033610Y19157265D01*
X34034852Y19159857D01*
X34087649Y19266916D01*
X34087652Y19266924D01*
X34094104Y19285932D01*
X34099048Y19298279D01*
X34108817Y19319330D01*
X34108823Y19319342D01*
X34144170Y19433294D01*
X34145120Y19436220D01*
X34182481Y19546278D01*
X34187045Y19569225D01*
X34190231Y19581779D01*
X34198093Y19607121D01*
X34217385Y19721496D01*
X34218023Y19724967D01*
X34240034Y19835620D01*
X34241781Y19862292D01*
X34243240Y19874775D01*
X34248209Y19904230D01*
X34251973Y20016827D01*
X34252169Y20020773D01*
X34259329Y20129995D01*
X34259329Y20129999D01*
X34259329Y20130000D01*
X34257363Y20159978D01*
X34257167Y20172197D01*
X34258277Y20205369D01*
X34247336Y20314120D01*
X34246980Y20318416D01*
X34240035Y20424368D01*
X34240033Y20424385D01*
X34233530Y20457076D01*
X34231770Y20468857D01*
X34228118Y20505159D01*
X34228118Y20505162D01*
X34203532Y20608325D01*
X34202556Y20612790D01*
X34182481Y20713722D01*
X34170695Y20748441D01*
X34167496Y20759543D01*
X34158272Y20798250D01*
X34158270Y20798254D01*
X34158269Y20798261D01*
X34121351Y20894116D01*
X34119655Y20898800D01*
X34105447Y20940655D01*
X34087652Y20993077D01*
X34069973Y21028927D01*
X34065479Y21039184D01*
X34049977Y21079434D01*
X34002196Y21166622D01*
X33999737Y21171348D01*
X33977722Y21215992D01*
X33957175Y21257659D01*
X33957172Y21257664D01*
X33933122Y21293656D01*
X33927500Y21302926D01*
X33905175Y21343665D01*
X33848154Y21421054D01*
X33844918Y21425664D01*
X33793273Y21502957D01*
X33793269Y21502962D01*
X33762553Y21537988D01*
X33755954Y21546190D01*
X33726450Y21586232D01*
X33726446Y21586238D01*
X33661934Y21652944D01*
X33657842Y21657387D01*
X33598760Y21724756D01*
X33561236Y21757665D01*
X33553865Y21764686D01*
X33516980Y21802824D01*
X33446768Y21858270D01*
X33441858Y21862357D01*
X33376960Y21919270D01*
X33376957Y21919273D01*
X33348683Y21938166D01*
X33332701Y21948845D01*
X33324746Y21954630D01*
X33280517Y21989557D01*
X33260847Y22001207D01*
X33206374Y22033472D01*
X33200703Y22037042D01*
X33150379Y22070668D01*
X33131666Y22083172D01*
X33080950Y22108183D01*
X33072626Y22112692D01*
X33021270Y22143109D01*
X33021266Y22143111D01*
X33021262Y22143113D01*
X32965324Y22166833D01*
X32944997Y22175452D01*
X32938577Y22178393D01*
X32867077Y22213652D01*
X32866244Y22213935D01*
X32810409Y22232890D01*
X32801864Y22236146D01*
X32777100Y22246647D01*
X32743872Y22260736D01*
X32743868Y22260737D01*
X32743866Y22260738D01*
X32667155Y22281752D01*
X32660058Y22283927D01*
X32587734Y22308478D01*
X32587723Y22308481D01*
X32587722Y22308481D01*
X32587717Y22308482D01*
X32525778Y22320803D01*
X32517210Y22322826D01*
X32453282Y22340338D01*
X32453265Y22340342D01*
X32377716Y22350503D01*
X32370058Y22351778D01*
X32318865Y22361960D01*
X32298380Y22366034D01*
X32298377Y22366035D01*
X32298374Y22366035D01*
X32232069Y22370381D01*
X32223654Y22371221D01*
X32186973Y22376154D01*
X32154653Y22380500D01*
X32154650Y22380500D01*
X32081727Y22380500D01*
X32073617Y22380766D01*
X32066380Y22381241D01*
X32004006Y22385329D01*
X32004002Y22385329D01*
X32004000Y22385329D01*
X31933953Y22380738D01*
X31930009Y22380543D01*
X31928766Y22380502D01*
X31858682Y22375810D01*
X31855157Y22375574D01*
X31855116Y22375572D01*
X31854986Y22375563D01*
X31708888Y22365987D01*
X31704125Y22365515D01*
X31703378Y22365414D01*
X31703369Y22365413D01*
X31703366Y22365412D01*
X31560594Y22336394D01*
X31560146Y22336304D01*
X31420277Y22308482D01*
X31416365Y22307433D01*
X31416316Y22307616D01*
X31408103Y22305398D01*
X31408098Y22305398D01*
X31273650Y22258713D01*
X31272837Y22258433D01*
X31140924Y22213653D01*
X31140851Y22213617D01*
X31140753Y22213569D01*
X31126616Y22207655D01*
X31123461Y22206560D01*
X31123457Y22206558D01*
X30999241Y22143790D01*
X30998162Y22143251D01*
X30876337Y22083173D01*
X30876329Y22083169D01*
X30873417Y22081223D01*
X30860483Y22073672D01*
X30854543Y22070671D01*
X30742584Y21993815D01*
X30741299Y21992944D01*
X30683959Y21954630D01*
X30631039Y21919270D01*
X30625921Y21914781D01*
X30614350Y21905787D01*
X30606133Y21900146D01*
X30507881Y21811284D01*
X30506465Y21810023D01*
X30409240Y21724757D01*
X30402555Y21717135D01*
X30392522Y21706947D01*
X30382667Y21698033D01*
X30382660Y21698026D01*
X30299299Y21599426D01*
X30297836Y21597726D01*
X30214726Y21502958D01*
X30207249Y21491768D01*
X30198851Y21480617D01*
X30188141Y21467949D01*
X30188140Y21467947D01*
X30120420Y21361868D01*
X30119006Y21359703D01*
X30050828Y21257664D01*
X30043412Y21242628D01*
X30036728Y21230766D01*
X30026007Y21213971D01*
X29974412Y21102788D01*
X29973146Y21100142D01*
X29920347Y20993076D01*
X29920345Y20993071D01*
X29913890Y20974056D01*
X29908957Y20961736D01*
X29899177Y20940658D01*
X29863841Y20826750D01*
X29862839Y20823666D01*
X29825522Y20713735D01*
X29825516Y20713711D01*
X29820951Y20690764D01*
X29817769Y20678226D01*
X29809905Y20652875D01*
X29790622Y20538566D01*
X29789968Y20535005D01*
X29767965Y20424377D01*
X29767964Y20424372D01*
X29766218Y20397727D01*
X29764758Y20385221D01*
X29759791Y20355769D01*
X29756027Y20243221D01*
X29755831Y20239258D01*
X29748671Y20130000D01*
X6835841Y20130000D01*
X6941214Y20336806D01*
X7080214Y20698913D01*
X7180602Y21073567D01*
X7241278Y21456662D01*
X7261578Y21844000D01*
X7241278Y22231338D01*
X7180602Y22614433D01*
X7080214Y22989087D01*
X6941214Y23351194D01*
X6765125Y23696789D01*
X6553876Y24022084D01*
X6309781Y24323516D01*
X6035516Y24597781D01*
X5734084Y24841876D01*
X5734082Y24841878D01*
X5688460Y24871505D01*
X5642957Y24924526D01*
X5633343Y24993731D01*
X5662670Y25057148D01*
X5721627Y25094642D01*
X5755995Y25099500D01*
X54696005Y25099500D01*
X54763044Y25079815D01*
G37*
%TD.AperFunction*%
%TD*%
M02*
