M48
; DRILL file {KiCad 7.0.10} date Wed Feb  7 21:16:33 2024
; FORMAT={-:-/ absolute / metric / decimal}
; #@! TF.CreationDate,2024-02-07T21:16:33+06:30
; #@! TF.GenerationSoftware,Kicad,Pcbnew,7.0.10
; #@! TF.FileFunction,Plated,1,2,PTH
FMAT,2
METRIC
; #@! TA.AperFunction,Plated,PTH,ViaDrill
T1C0.300
; #@! TA.AperFunction,Plated,PTH,ComponentDrill
T2C0.800
; #@! TA.AperFunction,Plated,PTH,ComponentDrill
T3C1.000
; #@! TA.AperFunction,Plated,PTH,ComponentDrill
T4C1.100
; #@! TA.AperFunction,Plated,PTH,ComponentDrill
T5C1.300
; #@! TA.AperFunction,Plated,PTH,ComponentDrill
T6C3.200
%
G90
G05
T1
X1.535Y17.238
X1.535Y9.618
X6.615Y7.078
X9.155Y22.318
X9.155Y12.158
X9.155Y1.998
X11.695Y17.238
X14.235Y4.538
X16.775Y22.318
X16.775Y14.698
X19.315Y7.078
X21.855Y19.778
X21.855Y1.998
X26.935Y22.318
X26.935Y14.698
X29.475Y9.618
X32.015Y17.238
X34.555Y22.318
X34.555Y12.158
X37.095Y7.078
X39.635Y19.778
X39.635Y1.998
X42.175Y14.698
X44.715Y22.318
X44.715Y9.618
X47.255Y17.238
X47.255Y4.538
X49.795Y12.158
X52.335Y22.318
X52.335Y7.078
X57.415Y17.238
X57.415Y9.618
T2
X14.732Y9.144
X14.732Y6.644
X39.943Y7.112
X42.443Y7.112
T3
X22.352Y11.37
X22.352Y3.87
X39.938Y15.24
X47.438Y15.24
T4
X13.97Y16.51
X24.13Y16.51
X29.464Y3.47
X32.004Y3.47
X34.544Y3.47
T5
X5.334Y15.245
X5.334Y10.165
X55.169Y15.235
X55.169Y10.155
T6
X3.556Y21.844
X3.556Y3.556
X56.896Y21.844
X56.896Y3.556
M30
