%TF.GenerationSoftware,KiCad,Pcbnew,7.0.10*%
%TF.CreationDate,2024-02-07T21:18:28+06:30*%
%TF.ProjectId,7805,37383035-2e6b-4696-9361-645f70636258,rev?*%
%TF.SameCoordinates,PXa990340PY791ddc0*%
%TF.FileFunction,Legend,Top*%
%TF.FilePolarity,Positive*%
%FSLAX46Y46*%
G04 Gerber Fmt 4.6, Leading zero omitted, Abs format (unit mm)*
G04 Created by KiCad (PCBNEW 7.0.10) date 2024-02-07 21:18:28*
%MOMM*%
%LPD*%
G01*
G04 APERTURE LIST*
%ADD10C,0.160000*%
%ADD11C,0.120000*%
G04 APERTURE END LIST*
D10*
X7455358Y18926701D02*
X7455358Y19593368D01*
X7455358Y19926701D02*
X7407739Y19879082D01*
X7407739Y19879082D02*
X7455358Y19831463D01*
X7455358Y19831463D02*
X7502977Y19879082D01*
X7502977Y19879082D02*
X7455358Y19926701D01*
X7455358Y19926701D02*
X7455358Y19831463D01*
X7931548Y19593368D02*
X7931548Y18926701D01*
X7931548Y19498130D02*
X7979167Y19545749D01*
X7979167Y19545749D02*
X8074405Y19593368D01*
X8074405Y19593368D02*
X8217262Y19593368D01*
X8217262Y19593368D02*
X8312500Y19545749D01*
X8312500Y19545749D02*
X8360119Y19450511D01*
X8360119Y19450511D02*
X8360119Y18926701D01*
X8836310Y19307654D02*
X9598215Y19307654D01*
X9217262Y18926701D02*
X9217262Y19688606D01*
X50270215Y5718701D02*
X50174977Y5766320D01*
X50174977Y5766320D02*
X50127358Y5813940D01*
X50127358Y5813940D02*
X50079739Y5909178D01*
X50079739Y5909178D02*
X50079739Y6194892D01*
X50079739Y6194892D02*
X50127358Y6290130D01*
X50127358Y6290130D02*
X50174977Y6337749D01*
X50174977Y6337749D02*
X50270215Y6385368D01*
X50270215Y6385368D02*
X50413072Y6385368D01*
X50413072Y6385368D02*
X50508310Y6337749D01*
X50508310Y6337749D02*
X50555929Y6290130D01*
X50555929Y6290130D02*
X50603548Y6194892D01*
X50603548Y6194892D02*
X50603548Y5909178D01*
X50603548Y5909178D02*
X50555929Y5813940D01*
X50555929Y5813940D02*
X50508310Y5766320D01*
X50508310Y5766320D02*
X50413072Y5718701D01*
X50413072Y5718701D02*
X50270215Y5718701D01*
X51460691Y6385368D02*
X51460691Y5718701D01*
X51032120Y6385368D02*
X51032120Y5861559D01*
X51032120Y5861559D02*
X51079739Y5766320D01*
X51079739Y5766320D02*
X51174977Y5718701D01*
X51174977Y5718701D02*
X51317834Y5718701D01*
X51317834Y5718701D02*
X51413072Y5766320D01*
X51413072Y5766320D02*
X51460691Y5813940D01*
X51794025Y6385368D02*
X52174977Y6385368D01*
X51936882Y6718701D02*
X51936882Y5861559D01*
X51936882Y5861559D02*
X51984501Y5766320D01*
X51984501Y5766320D02*
X52079739Y5718701D01*
X52079739Y5718701D02*
X52174977Y5718701D01*
X52508311Y6099654D02*
X53270216Y6099654D01*
X7455358Y5718701D02*
X7455358Y6385368D01*
X7455358Y6718701D02*
X7407739Y6671082D01*
X7407739Y6671082D02*
X7455358Y6623463D01*
X7455358Y6623463D02*
X7502977Y6671082D01*
X7502977Y6671082D02*
X7455358Y6718701D01*
X7455358Y6718701D02*
X7455358Y6623463D01*
X7931548Y6385368D02*
X7931548Y5718701D01*
X7931548Y6290130D02*
X7979167Y6337749D01*
X7979167Y6337749D02*
X8074405Y6385368D01*
X8074405Y6385368D02*
X8217262Y6385368D01*
X8217262Y6385368D02*
X8312500Y6337749D01*
X8312500Y6337749D02*
X8360119Y6242511D01*
X8360119Y6242511D02*
X8360119Y5718701D01*
X8836310Y6099654D02*
X9598215Y6099654D01*
X50270215Y18926701D02*
X50174977Y18974320D01*
X50174977Y18974320D02*
X50127358Y19021940D01*
X50127358Y19021940D02*
X50079739Y19117178D01*
X50079739Y19117178D02*
X50079739Y19402892D01*
X50079739Y19402892D02*
X50127358Y19498130D01*
X50127358Y19498130D02*
X50174977Y19545749D01*
X50174977Y19545749D02*
X50270215Y19593368D01*
X50270215Y19593368D02*
X50413072Y19593368D01*
X50413072Y19593368D02*
X50508310Y19545749D01*
X50508310Y19545749D02*
X50555929Y19498130D01*
X50555929Y19498130D02*
X50603548Y19402892D01*
X50603548Y19402892D02*
X50603548Y19117178D01*
X50603548Y19117178D02*
X50555929Y19021940D01*
X50555929Y19021940D02*
X50508310Y18974320D01*
X50508310Y18974320D02*
X50413072Y18926701D01*
X50413072Y18926701D02*
X50270215Y18926701D01*
X51460691Y19593368D02*
X51460691Y18926701D01*
X51032120Y19593368D02*
X51032120Y19069559D01*
X51032120Y19069559D02*
X51079739Y18974320D01*
X51079739Y18974320D02*
X51174977Y18926701D01*
X51174977Y18926701D02*
X51317834Y18926701D01*
X51317834Y18926701D02*
X51413072Y18974320D01*
X51413072Y18974320D02*
X51460691Y19021940D01*
X51794025Y19593368D02*
X52174977Y19593368D01*
X51936882Y19926701D02*
X51936882Y19069559D01*
X51936882Y19069559D02*
X51984501Y18974320D01*
X51984501Y18974320D02*
X52079739Y18926701D01*
X52079739Y18926701D02*
X52174977Y18926701D01*
X52508311Y19307654D02*
X53270216Y19307654D01*
X52889263Y18926701D02*
X52889263Y19688606D01*
X45045333Y6752940D02*
X44997714Y6705320D01*
X44997714Y6705320D02*
X44854857Y6657701D01*
X44854857Y6657701D02*
X44759619Y6657701D01*
X44759619Y6657701D02*
X44616762Y6705320D01*
X44616762Y6705320D02*
X44521524Y6800559D01*
X44521524Y6800559D02*
X44473905Y6895797D01*
X44473905Y6895797D02*
X44426286Y7086273D01*
X44426286Y7086273D02*
X44426286Y7229130D01*
X44426286Y7229130D02*
X44473905Y7419606D01*
X44473905Y7419606D02*
X44521524Y7514844D01*
X44521524Y7514844D02*
X44616762Y7610082D01*
X44616762Y7610082D02*
X44759619Y7657701D01*
X44759619Y7657701D02*
X44854857Y7657701D01*
X44854857Y7657701D02*
X44997714Y7610082D01*
X44997714Y7610082D02*
X45045333Y7562463D01*
X45378667Y7657701D02*
X45997714Y7657701D01*
X45997714Y7657701D02*
X45664381Y7276749D01*
X45664381Y7276749D02*
X45807238Y7276749D01*
X45807238Y7276749D02*
X45902476Y7229130D01*
X45902476Y7229130D02*
X45950095Y7181511D01*
X45950095Y7181511D02*
X45997714Y7086273D01*
X45997714Y7086273D02*
X45997714Y6848178D01*
X45997714Y6848178D02*
X45950095Y6752940D01*
X45950095Y6752940D02*
X45902476Y6705320D01*
X45902476Y6705320D02*
X45807238Y6657701D01*
X45807238Y6657701D02*
X45521524Y6657701D01*
X45521524Y6657701D02*
X45426286Y6705320D01*
X45426286Y6705320D02*
X45378667Y6752940D01*
X47714299Y9318667D02*
X48428584Y9318667D01*
X48428584Y9318667D02*
X48571441Y9271048D01*
X48571441Y9271048D02*
X48666680Y9175810D01*
X48666680Y9175810D02*
X48714299Y9032953D01*
X48714299Y9032953D02*
X48714299Y8937715D01*
X47809537Y9747239D02*
X47761918Y9794858D01*
X47761918Y9794858D02*
X47714299Y9890096D01*
X47714299Y9890096D02*
X47714299Y10128191D01*
X47714299Y10128191D02*
X47761918Y10223429D01*
X47761918Y10223429D02*
X47809537Y10271048D01*
X47809537Y10271048D02*
X47904775Y10318667D01*
X47904775Y10318667D02*
X48000013Y10318667D01*
X48000013Y10318667D02*
X48142870Y10271048D01*
X48142870Y10271048D02*
X48714299Y9699620D01*
X48714299Y9699620D02*
X48714299Y10318667D01*
X14565333Y11324940D02*
X14517714Y11277320D01*
X14517714Y11277320D02*
X14374857Y11229701D01*
X14374857Y11229701D02*
X14279619Y11229701D01*
X14279619Y11229701D02*
X14136762Y11277320D01*
X14136762Y11277320D02*
X14041524Y11372559D01*
X14041524Y11372559D02*
X13993905Y11467797D01*
X13993905Y11467797D02*
X13946286Y11658273D01*
X13946286Y11658273D02*
X13946286Y11801130D01*
X13946286Y11801130D02*
X13993905Y11991606D01*
X13993905Y11991606D02*
X14041524Y12086844D01*
X14041524Y12086844D02*
X14136762Y12182082D01*
X14136762Y12182082D02*
X14279619Y12229701D01*
X14279619Y12229701D02*
X14374857Y12229701D01*
X14374857Y12229701D02*
X14517714Y12182082D01*
X14517714Y12182082D02*
X14565333Y12134463D01*
X15517714Y11229701D02*
X14946286Y11229701D01*
X15232000Y11229701D02*
X15232000Y12229701D01*
X15232000Y12229701D02*
X15136762Y12086844D01*
X15136762Y12086844D02*
X15041524Y11991606D01*
X15041524Y11991606D02*
X14946286Y11943987D01*
X22711060Y7453334D02*
X22758680Y7405715D01*
X22758680Y7405715D02*
X22806299Y7262858D01*
X22806299Y7262858D02*
X22806299Y7167620D01*
X22806299Y7167620D02*
X22758680Y7024763D01*
X22758680Y7024763D02*
X22663441Y6929525D01*
X22663441Y6929525D02*
X22568203Y6881906D01*
X22568203Y6881906D02*
X22377727Y6834287D01*
X22377727Y6834287D02*
X22234870Y6834287D01*
X22234870Y6834287D02*
X22044394Y6881906D01*
X22044394Y6881906D02*
X21949156Y6929525D01*
X21949156Y6929525D02*
X21853918Y7024763D01*
X21853918Y7024763D02*
X21806299Y7167620D01*
X21806299Y7167620D02*
X21806299Y7262858D01*
X21806299Y7262858D02*
X21853918Y7405715D01*
X21853918Y7405715D02*
X21901537Y7453334D01*
X21901537Y7834287D02*
X21853918Y7881906D01*
X21853918Y7881906D02*
X21806299Y7977144D01*
X21806299Y7977144D02*
X21806299Y8215239D01*
X21806299Y8215239D02*
X21853918Y8310477D01*
X21853918Y8310477D02*
X21901537Y8358096D01*
X21901537Y8358096D02*
X21996775Y8405715D01*
X21996775Y8405715D02*
X22092013Y8405715D01*
X22092013Y8405715D02*
X22234870Y8358096D01*
X22234870Y8358096D02*
X22806299Y7786668D01*
X22806299Y7786668D02*
X22806299Y8405715D01*
X11138299Y12371667D02*
X11852584Y12371667D01*
X11852584Y12371667D02*
X11995441Y12324048D01*
X11995441Y12324048D02*
X12090680Y12228810D01*
X12090680Y12228810D02*
X12138299Y12085953D01*
X12138299Y12085953D02*
X12138299Y11990715D01*
X12138299Y13371667D02*
X12138299Y12800239D01*
X12138299Y13085953D02*
X11138299Y13085953D01*
X11138299Y13085953D02*
X11281156Y12990715D01*
X11281156Y12990715D02*
X11376394Y12895477D01*
X11376394Y12895477D02*
X11424013Y12800239D01*
X18311905Y13585701D02*
X18311905Y14585701D01*
X18311905Y14585701D02*
X18550000Y14585701D01*
X18550000Y14585701D02*
X18692857Y14538082D01*
X18692857Y14538082D02*
X18788095Y14442844D01*
X18788095Y14442844D02*
X18835714Y14347606D01*
X18835714Y14347606D02*
X18883333Y14157130D01*
X18883333Y14157130D02*
X18883333Y14014273D01*
X18883333Y14014273D02*
X18835714Y13823797D01*
X18835714Y13823797D02*
X18788095Y13728559D01*
X18788095Y13728559D02*
X18692857Y13633320D01*
X18692857Y13633320D02*
X18550000Y13585701D01*
X18550000Y13585701D02*
X18311905Y13585701D01*
X19835714Y13585701D02*
X19264286Y13585701D01*
X19550000Y13585701D02*
X19550000Y14585701D01*
X19550000Y14585701D02*
X19454762Y14442844D01*
X19454762Y14442844D02*
X19359524Y14347606D01*
X19359524Y14347606D02*
X19264286Y14299987D01*
X23868095Y13642701D02*
X23868095Y14642701D01*
X24439523Y13642701D02*
X24010952Y14214130D01*
X24439523Y14642701D02*
X23868095Y14071273D01*
X43521333Y14880940D02*
X43473714Y14833320D01*
X43473714Y14833320D02*
X43330857Y14785701D01*
X43330857Y14785701D02*
X43235619Y14785701D01*
X43235619Y14785701D02*
X43092762Y14833320D01*
X43092762Y14833320D02*
X42997524Y14928559D01*
X42997524Y14928559D02*
X42949905Y15023797D01*
X42949905Y15023797D02*
X42902286Y15214273D01*
X42902286Y15214273D02*
X42902286Y15357130D01*
X42902286Y15357130D02*
X42949905Y15547606D01*
X42949905Y15547606D02*
X42997524Y15642844D01*
X42997524Y15642844D02*
X43092762Y15738082D01*
X43092762Y15738082D02*
X43235619Y15785701D01*
X43235619Y15785701D02*
X43330857Y15785701D01*
X43330857Y15785701D02*
X43473714Y15738082D01*
X43473714Y15738082D02*
X43521333Y15690463D01*
X44378476Y15452368D02*
X44378476Y14785701D01*
X44140381Y15833320D02*
X43902286Y15119035D01*
X43902286Y15119035D02*
X44521333Y15119035D01*
X31242095Y24595701D02*
X31242095Y23786178D01*
X31242095Y23786178D02*
X31289714Y23690940D01*
X31289714Y23690940D02*
X31337333Y23643320D01*
X31337333Y23643320D02*
X31432571Y23595701D01*
X31432571Y23595701D02*
X31623047Y23595701D01*
X31623047Y23595701D02*
X31718285Y23643320D01*
X31718285Y23643320D02*
X31765904Y23690940D01*
X31765904Y23690940D02*
X31813523Y23786178D01*
X31813523Y23786178D02*
X31813523Y24595701D01*
X32813523Y23595701D02*
X32242095Y23595701D01*
X32527809Y23595701D02*
X32527809Y24595701D01*
X32527809Y24595701D02*
X32432571Y24452844D01*
X32432571Y24452844D02*
X32337333Y24357606D01*
X32337333Y24357606D02*
X32242095Y24309987D01*
D11*
%TO.C,C3*%
X38388113Y8587000D02*
X38888113Y8587000D01*
X38638113Y8837000D02*
X38638113Y8337000D01*
X41192888Y9692000D02*
X41192888Y4532000D01*
X41232888Y9692000D02*
X41232888Y4532000D01*
X41272888Y9691000D02*
X41272888Y4533000D01*
X41312888Y9690000D02*
X41312888Y4534000D01*
X41352888Y9688000D02*
X41352888Y4536000D01*
X41392888Y9685000D02*
X41392888Y4539000D01*
X41432888Y9681000D02*
X41432888Y8152000D01*
X41432888Y6072000D02*
X41432888Y4543000D01*
X41472888Y9677000D02*
X41472888Y8152000D01*
X41472888Y6072000D02*
X41472888Y4547000D01*
X41512888Y9673000D02*
X41512888Y8152000D01*
X41512888Y6072000D02*
X41512888Y4551000D01*
X41552888Y9668000D02*
X41552888Y8152000D01*
X41552888Y6072000D02*
X41552888Y4556000D01*
X41592888Y9662000D02*
X41592888Y8152000D01*
X41592888Y6072000D02*
X41592888Y4562000D01*
X41632888Y9655000D02*
X41632888Y8152000D01*
X41632888Y6072000D02*
X41632888Y4569000D01*
X41672888Y9648000D02*
X41672888Y8152000D01*
X41672888Y6072000D02*
X41672888Y4576000D01*
X41712888Y9640000D02*
X41712888Y8152000D01*
X41712888Y6072000D02*
X41712888Y4584000D01*
X41752888Y9632000D02*
X41752888Y8152000D01*
X41752888Y6072000D02*
X41752888Y4592000D01*
X41792888Y9623000D02*
X41792888Y8152000D01*
X41792888Y6072000D02*
X41792888Y4601000D01*
X41832888Y9613000D02*
X41832888Y8152000D01*
X41832888Y6072000D02*
X41832888Y4611000D01*
X41872888Y9603000D02*
X41872888Y8152000D01*
X41872888Y6072000D02*
X41872888Y4621000D01*
X41913888Y9592000D02*
X41913888Y8152000D01*
X41913888Y6072000D02*
X41913888Y4632000D01*
X41953888Y9580000D02*
X41953888Y8152000D01*
X41953888Y6072000D02*
X41953888Y4644000D01*
X41993888Y9567000D02*
X41993888Y8152000D01*
X41993888Y6072000D02*
X41993888Y4657000D01*
X42033888Y9554000D02*
X42033888Y8152000D01*
X42033888Y6072000D02*
X42033888Y4670000D01*
X42073888Y9540000D02*
X42073888Y8152000D01*
X42073888Y6072000D02*
X42073888Y4684000D01*
X42113888Y9526000D02*
X42113888Y8152000D01*
X42113888Y6072000D02*
X42113888Y4698000D01*
X42153888Y9510000D02*
X42153888Y8152000D01*
X42153888Y6072000D02*
X42153888Y4714000D01*
X42193888Y9494000D02*
X42193888Y8152000D01*
X42193888Y6072000D02*
X42193888Y4730000D01*
X42233888Y9477000D02*
X42233888Y8152000D01*
X42233888Y6072000D02*
X42233888Y4747000D01*
X42273888Y9460000D02*
X42273888Y8152000D01*
X42273888Y6072000D02*
X42273888Y4764000D01*
X42313888Y9441000D02*
X42313888Y8152000D01*
X42313888Y6072000D02*
X42313888Y4783000D01*
X42353888Y9422000D02*
X42353888Y8152000D01*
X42353888Y6072000D02*
X42353888Y4802000D01*
X42393888Y9402000D02*
X42393888Y8152000D01*
X42393888Y6072000D02*
X42393888Y4822000D01*
X42433888Y9380000D02*
X42433888Y8152000D01*
X42433888Y6072000D02*
X42433888Y4844000D01*
X42473888Y9359000D02*
X42473888Y8152000D01*
X42473888Y6072000D02*
X42473888Y4865000D01*
X42513888Y9336000D02*
X42513888Y8152000D01*
X42513888Y6072000D02*
X42513888Y4888000D01*
X42553888Y9312000D02*
X42553888Y8152000D01*
X42553888Y6072000D02*
X42553888Y4912000D01*
X42593888Y9287000D02*
X42593888Y8152000D01*
X42593888Y6072000D02*
X42593888Y4937000D01*
X42633888Y9261000D02*
X42633888Y8152000D01*
X42633888Y6072000D02*
X42633888Y4963000D01*
X42673888Y9234000D02*
X42673888Y8152000D01*
X42673888Y6072000D02*
X42673888Y4990000D01*
X42713888Y9207000D02*
X42713888Y8152000D01*
X42713888Y6072000D02*
X42713888Y5017000D01*
X42753888Y9177000D02*
X42753888Y8152000D01*
X42753888Y6072000D02*
X42753888Y5047000D01*
X42793888Y9147000D02*
X42793888Y8152000D01*
X42793888Y6072000D02*
X42793888Y5077000D01*
X42833888Y9116000D02*
X42833888Y8152000D01*
X42833888Y6072000D02*
X42833888Y5108000D01*
X42873888Y9083000D02*
X42873888Y8152000D01*
X42873888Y6072000D02*
X42873888Y5141000D01*
X42913888Y9049000D02*
X42913888Y8152000D01*
X42913888Y6072000D02*
X42913888Y5175000D01*
X42953888Y9013000D02*
X42953888Y8152000D01*
X42953888Y6072000D02*
X42953888Y5211000D01*
X42993888Y8976000D02*
X42993888Y8152000D01*
X42993888Y6072000D02*
X42993888Y5248000D01*
X43033888Y8938000D02*
X43033888Y8152000D01*
X43033888Y6072000D02*
X43033888Y5286000D01*
X43073888Y8897000D02*
X43073888Y8152000D01*
X43073888Y6072000D02*
X43073888Y5327000D01*
X43113888Y8855000D02*
X43113888Y8152000D01*
X43113888Y6072000D02*
X43113888Y5369000D01*
X43153888Y8811000D02*
X43153888Y8152000D01*
X43153888Y6072000D02*
X43153888Y5413000D01*
X43193888Y8765000D02*
X43193888Y8152000D01*
X43193888Y6072000D02*
X43193888Y5459000D01*
X43233888Y8717000D02*
X43233888Y8152000D01*
X43233888Y6072000D02*
X43233888Y5507000D01*
X43273888Y8666000D02*
X43273888Y8152000D01*
X43273888Y6072000D02*
X43273888Y5558000D01*
X43313888Y8612000D02*
X43313888Y8152000D01*
X43313888Y6072000D02*
X43313888Y5612000D01*
X43353888Y8555000D02*
X43353888Y8152000D01*
X43353888Y6072000D02*
X43353888Y5669000D01*
X43393888Y8495000D02*
X43393888Y8152000D01*
X43393888Y6072000D02*
X43393888Y5729000D01*
X43433888Y8431000D02*
X43433888Y8152000D01*
X43433888Y6072000D02*
X43433888Y5793000D01*
X43473888Y8363000D02*
X43473888Y8152000D01*
X43473888Y6072000D02*
X43473888Y5861000D01*
X43513888Y8290000D02*
X43513888Y5934000D01*
X43553888Y8210000D02*
X43553888Y6014000D01*
X43593888Y8123000D02*
X43593888Y6101000D01*
X43633888Y8027000D02*
X43633888Y6197000D01*
X43673888Y7917000D02*
X43673888Y6307000D01*
X43713888Y7789000D02*
X43713888Y6435000D01*
X43753888Y7630000D02*
X43753888Y6594000D01*
X43793888Y7396000D02*
X43793888Y6828000D01*
X43812888Y7112000D02*
G75*
G03*
X38572888Y7112000I-2620000J0D01*
G01*
X38572888Y7112000D02*
G75*
G03*
X43812888Y7112000I2620000J0D01*
G01*
%TO.C,J2*%
X59329000Y7315000D02*
X60069000Y7315000D01*
X60069000Y7315000D02*
X60069000Y7815000D01*
X49908000Y7555000D02*
X59829000Y7555000D01*
X49908000Y7555000D02*
X49908000Y17835000D01*
X52868000Y7555000D02*
X52868000Y17835000D01*
X57769000Y7555000D02*
X57769000Y17835000D01*
X59269000Y7555000D02*
X59269000Y17835000D01*
X59829000Y7555000D02*
X59829000Y17835000D01*
X56192000Y14008000D02*
X56238000Y13961000D01*
X56408000Y14201000D02*
X56443000Y14166000D01*
X53894000Y16305000D02*
X53930000Y16270000D01*
X54100000Y16510000D02*
X54146000Y16463000D01*
X49908000Y17835000D02*
X59829000Y17835000D01*
X54485001Y8620001D02*
G75*
G03*
X55852042Y8619574I684000J1534992D01*
G01*
X53634001Y10838999D02*
G75*
G03*
X53633574Y9471958I1534992J-684000D01*
G01*
X56703999Y9471000D02*
G75*
G03*
X56849252Y10183805I-1535000J683999D01*
G01*
X56848999Y10155000D02*
G75*
G03*
X56703755Y10838318I-1679999J0D01*
G01*
X55853000Y11690000D02*
G75*
G03*
X54485958Y11690426I-684000J-1535000D01*
G01*
X56849000Y15235000D02*
G75*
G03*
X53489000Y15235000I-1680000J0D01*
G01*
X53489000Y15235000D02*
G75*
G03*
X56849000Y15235000I1680000J0D01*
G01*
%TO.C,C1*%
X16207000Y10698775D02*
X16207000Y10198775D01*
X16457000Y10448775D02*
X15957000Y10448775D01*
X17312000Y7894000D02*
X12152000Y7894000D01*
X17312000Y7854000D02*
X12152000Y7854000D01*
X17311000Y7814000D02*
X12153000Y7814000D01*
X17310000Y7774000D02*
X12154000Y7774000D01*
X17308000Y7734000D02*
X12156000Y7734000D01*
X17305000Y7694000D02*
X12159000Y7694000D01*
X17301000Y7654000D02*
X15772000Y7654000D01*
X13692000Y7654000D02*
X12163000Y7654000D01*
X17297000Y7614000D02*
X15772000Y7614000D01*
X13692000Y7614000D02*
X12167000Y7614000D01*
X17293000Y7574000D02*
X15772000Y7574000D01*
X13692000Y7574000D02*
X12171000Y7574000D01*
X17288000Y7534000D02*
X15772000Y7534000D01*
X13692000Y7534000D02*
X12176000Y7534000D01*
X17282000Y7494000D02*
X15772000Y7494000D01*
X13692000Y7494000D02*
X12182000Y7494000D01*
X17275000Y7454000D02*
X15772000Y7454000D01*
X13692000Y7454000D02*
X12189000Y7454000D01*
X17268000Y7414000D02*
X15772000Y7414000D01*
X13692000Y7414000D02*
X12196000Y7414000D01*
X17260000Y7374000D02*
X15772000Y7374000D01*
X13692000Y7374000D02*
X12204000Y7374000D01*
X17252000Y7334000D02*
X15772000Y7334000D01*
X13692000Y7334000D02*
X12212000Y7334000D01*
X17243000Y7294000D02*
X15772000Y7294000D01*
X13692000Y7294000D02*
X12221000Y7294000D01*
X17233000Y7254000D02*
X15772000Y7254000D01*
X13692000Y7254000D02*
X12231000Y7254000D01*
X17223000Y7214000D02*
X15772000Y7214000D01*
X13692000Y7214000D02*
X12241000Y7214000D01*
X17212000Y7173000D02*
X15772000Y7173000D01*
X13692000Y7173000D02*
X12252000Y7173000D01*
X17200000Y7133000D02*
X15772000Y7133000D01*
X13692000Y7133000D02*
X12264000Y7133000D01*
X17187000Y7093000D02*
X15772000Y7093000D01*
X13692000Y7093000D02*
X12277000Y7093000D01*
X17174000Y7053000D02*
X15772000Y7053000D01*
X13692000Y7053000D02*
X12290000Y7053000D01*
X17160000Y7013000D02*
X15772000Y7013000D01*
X13692000Y7013000D02*
X12304000Y7013000D01*
X17146000Y6973000D02*
X15772000Y6973000D01*
X13692000Y6973000D02*
X12318000Y6973000D01*
X17130000Y6933000D02*
X15772000Y6933000D01*
X13692000Y6933000D02*
X12334000Y6933000D01*
X17114000Y6893000D02*
X15772000Y6893000D01*
X13692000Y6893000D02*
X12350000Y6893000D01*
X17097000Y6853000D02*
X15772000Y6853000D01*
X13692000Y6853000D02*
X12367000Y6853000D01*
X17080000Y6813000D02*
X15772000Y6813000D01*
X13692000Y6813000D02*
X12384000Y6813000D01*
X17061000Y6773000D02*
X15772000Y6773000D01*
X13692000Y6773000D02*
X12403000Y6773000D01*
X17042000Y6733000D02*
X15772000Y6733000D01*
X13692000Y6733000D02*
X12422000Y6733000D01*
X17022000Y6693000D02*
X15772000Y6693000D01*
X13692000Y6693000D02*
X12442000Y6693000D01*
X17000000Y6653000D02*
X15772000Y6653000D01*
X13692000Y6653000D02*
X12464000Y6653000D01*
X16979000Y6613000D02*
X15772000Y6613000D01*
X13692000Y6613000D02*
X12485000Y6613000D01*
X16956000Y6573000D02*
X15772000Y6573000D01*
X13692000Y6573000D02*
X12508000Y6573000D01*
X16932000Y6533000D02*
X15772000Y6533000D01*
X13692000Y6533000D02*
X12532000Y6533000D01*
X16907000Y6493000D02*
X15772000Y6493000D01*
X13692000Y6493000D02*
X12557000Y6493000D01*
X16881000Y6453000D02*
X15772000Y6453000D01*
X13692000Y6453000D02*
X12583000Y6453000D01*
X16854000Y6413000D02*
X15772000Y6413000D01*
X13692000Y6413000D02*
X12610000Y6413000D01*
X16827000Y6373000D02*
X15772000Y6373000D01*
X13692000Y6373000D02*
X12637000Y6373000D01*
X16797000Y6333000D02*
X15772000Y6333000D01*
X13692000Y6333000D02*
X12667000Y6333000D01*
X16767000Y6293000D02*
X15772000Y6293000D01*
X13692000Y6293000D02*
X12697000Y6293000D01*
X16736000Y6253000D02*
X15772000Y6253000D01*
X13692000Y6253000D02*
X12728000Y6253000D01*
X16703000Y6213000D02*
X15772000Y6213000D01*
X13692000Y6213000D02*
X12761000Y6213000D01*
X16669000Y6173000D02*
X15772000Y6173000D01*
X13692000Y6173000D02*
X12795000Y6173000D01*
X16633000Y6133000D02*
X15772000Y6133000D01*
X13692000Y6133000D02*
X12831000Y6133000D01*
X16596000Y6093000D02*
X15772000Y6093000D01*
X13692000Y6093000D02*
X12868000Y6093000D01*
X16558000Y6053000D02*
X15772000Y6053000D01*
X13692000Y6053000D02*
X12906000Y6053000D01*
X16517000Y6013000D02*
X15772000Y6013000D01*
X13692000Y6013000D02*
X12947000Y6013000D01*
X16475000Y5973000D02*
X15772000Y5973000D01*
X13692000Y5973000D02*
X12989000Y5973000D01*
X16431000Y5933000D02*
X15772000Y5933000D01*
X13692000Y5933000D02*
X13033000Y5933000D01*
X16385000Y5893000D02*
X15772000Y5893000D01*
X13692000Y5893000D02*
X13079000Y5893000D01*
X16337000Y5853000D02*
X15772000Y5853000D01*
X13692000Y5853000D02*
X13127000Y5853000D01*
X16286000Y5813000D02*
X15772000Y5813000D01*
X13692000Y5813000D02*
X13178000Y5813000D01*
X16232000Y5773000D02*
X15772000Y5773000D01*
X13692000Y5773000D02*
X13232000Y5773000D01*
X16175000Y5733000D02*
X15772000Y5733000D01*
X13692000Y5733000D02*
X13289000Y5733000D01*
X16115000Y5693000D02*
X15772000Y5693000D01*
X13692000Y5693000D02*
X13349000Y5693000D01*
X16051000Y5653000D02*
X15772000Y5653000D01*
X13692000Y5653000D02*
X13413000Y5653000D01*
X15983000Y5613000D02*
X15772000Y5613000D01*
X13692000Y5613000D02*
X13481000Y5613000D01*
X15910000Y5573000D02*
X13554000Y5573000D01*
X15830000Y5533000D02*
X13634000Y5533000D01*
X15743000Y5493000D02*
X13721000Y5493000D01*
X15647000Y5453000D02*
X13817000Y5453000D01*
X15537000Y5413000D02*
X13927000Y5413000D01*
X15409000Y5373000D02*
X14055000Y5373000D01*
X15250000Y5333000D02*
X14214000Y5333000D01*
X15016000Y5293000D02*
X14448000Y5293000D01*
X17352000Y7894000D02*
G75*
G03*
X12112000Y7894000I-2620000J0D01*
G01*
X12112000Y7894000D02*
G75*
G03*
X17352000Y7894000I2620000J0D01*
G01*
%TO.C,C2*%
X19732000Y3000000D02*
X21406000Y3000000D01*
X19732000Y3000000D02*
X19732000Y12240000D01*
X23298000Y3000000D02*
X24972000Y3000000D01*
X24972000Y3000000D02*
X24972000Y12240000D01*
X19732000Y12240000D02*
X21406000Y12240000D01*
X23298000Y12240000D02*
X24972000Y12240000D01*
%TO.C,J1*%
X1174000Y18085000D02*
X434000Y18085000D01*
X434000Y18085000D02*
X434000Y17585000D01*
X10595000Y17845000D02*
X674000Y17845000D01*
X10595000Y17845000D02*
X10595000Y7565000D01*
X7635000Y17845000D02*
X7635000Y7565000D01*
X2734000Y17845000D02*
X2734000Y7565000D01*
X1234000Y17845000D02*
X1234000Y7565000D01*
X674000Y17845000D02*
X674000Y7565000D01*
X4311000Y11392000D02*
X4265000Y11439000D01*
X4095000Y11199000D02*
X4060000Y11234000D01*
X6609000Y9095000D02*
X6573000Y9130000D01*
X6403000Y8890000D02*
X6357000Y8937000D01*
X10595000Y7565000D02*
X674000Y7565000D01*
X6017999Y16779999D02*
G75*
G03*
X4650958Y16780426I-684000J-1534992D01*
G01*
X6868999Y14561001D02*
G75*
G03*
X6869426Y15928042I-1534992J684000D01*
G01*
X3799001Y15929000D02*
G75*
G03*
X3653748Y15216195I1535000J-683999D01*
G01*
X3654001Y15245000D02*
G75*
G03*
X3799245Y14561682I1679999J0D01*
G01*
X4650000Y13710000D02*
G75*
G03*
X6017042Y13709574I684000J1535000D01*
G01*
X7014000Y10165000D02*
G75*
G03*
X3654000Y10165000I-1680000J0D01*
G01*
X3654000Y10165000D02*
G75*
G03*
X7014000Y10165000I1680000J0D01*
G01*
%TO.C,D1*%
X22790000Y16510000D02*
X21770000Y16510000D01*
X21770000Y15040000D02*
X21770000Y17980000D01*
X21770000Y17980000D02*
X16330000Y17980000D01*
X20990000Y15040000D02*
X20990000Y17980000D01*
X20870000Y15040000D02*
X20870000Y17980000D01*
X20750000Y15040000D02*
X20750000Y17980000D01*
X16330000Y15040000D02*
X21770000Y15040000D01*
X16330000Y17980000D02*
X16330000Y15040000D01*
X15310000Y16510000D02*
X16330000Y16510000D01*
%TO.C,C4*%
X48308000Y12620000D02*
X48308000Y14294000D01*
X48308000Y12620000D02*
X39068000Y12620000D01*
X48308000Y16186000D02*
X48308000Y17860000D01*
X48308000Y17860000D02*
X39068000Y17860000D01*
X39068000Y12620000D02*
X39068000Y14294000D01*
X39068000Y16186000D02*
X39068000Y17860000D01*
%TO.C,U1*%
X26884000Y23050000D02*
X26884000Y7160000D01*
X26884000Y23050000D02*
X37124000Y23050000D01*
X26884000Y7160000D02*
X37124000Y7160000D01*
X29464000Y7160000D02*
X29464000Y4620000D01*
X32004000Y7160000D02*
X32004000Y4620000D01*
X34544000Y7160000D02*
X34544000Y4620000D01*
X37124000Y23050000D02*
X37124000Y7160000D01*
%TD*%
M02*
